<?xml version="1.0" encoding="UTF-8"?>
<!DOCTYPE svg PUBLIC "-//W3C//DTD SVG 1.1//EN" "http://www.w3.org/Graphics/SVG/1.1/DTD/svg11.dtd">
<!-- Creator: CorelDRAW X7 -->
<svg xmlns="http://www.w3.org/2000/svg" xml:space="preserve" width="1811px" height="1811px" version="1.1" style="shape-rendering:geometricPrecision; text-rendering:geometricPrecision; image-rendering:optimizeQuality; fill-rule:evenodd; clip-rule:evenodd"
viewBox="0 0 1811 1811"
 xmlns:xlink="http://www.w3.org/1999/xlink">
 <defs>
  <style type="text/css">
   <![CDATA[
    .fil3 {fill:none;fill-rule:nonzero}
    .fil5 {fill:white}
    .fil0 {fill:black;fill-rule:nonzero}
    .fil4 {fill:#FF6600;fill-rule:nonzero}
    .fil7 {fill:#FFA061;fill-rule:nonzero}
    .fil1 {fill:white;fill-opacity:0.231373}
    .fil2 {fill:white;fill-opacity:0.478431}
    .fil6 {fill:white;fill-opacity:0.811765}
   ]]>
  </style>
     <clipPath id="id0" style="clip-rule:nonzero">
      <path d="M1711 902c0,0 0,-7 -1,-21 -1,-13 -2,-33 -11,-58 -4,-13 -10,-26 -21,-39 -5,-6 -12,-12 -20,-16 -8,-4 -18,-7 -28,-7 -35,-1 -74,-4 -117,-8 -43,-4 -90,-9 -138,-18 -24,-5 -49,-8 -70,-19 -5,-3 -9,-6 -15,-9 -5,-4 -11,-8 -16,-11 -11,-8 -22,-15 -33,-23 -46,-31 -97,-59 -152,-80 -55,-21 -114,-34 -173,-40 -15,-1 -30,-1 -45,-2 -8,-1 -15,-1 -23,0l-22 0 -23 0 -21 2 -22 2 -10 1 -11 1c-60,6 -116,18 -170,35 -53,17 -103,41 -147,67 -21,13 -42,26 -62,38 -4,2 -9,5 -13,7l-7 3 -3 2 -2 1c-2,0 -4,1 -5,1l-8 2c-6,1 -9,1 -14,2 -21,2 -41,2 -62,4 -20,1 -41,4 -60,10 -5,2 -9,5 -14,7 -5,3 -9,5 -13,8 -4,4 -8,7 -11,11 -2,2 -3,3 -5,6 -1,2 -2,4 -3,5 -7,13 -14,28 -19,40 -9,24 -14,44 -17,57 -3,14 -4,21 -4,21l6 1c0,0 2,-6 8,-18 6,-13 14,-31 27,-52 6,-11 12,-21 22,-33l4 -4 3 -3c2,-2 4,-4 7,-5 2,-2 6,-3 9,-4 3,-1 6,-2 10,-3 15,-3 32,-4 51,-3 19,1 40,3 63,2 6,0 13,0 19,-1l8 0 1 0 1 -1 1 0 3 -1 6 -1 5 -1 5 -2 9 -4c6,-2 12,-5 18,-7 20,-11 42,-23 64,-34 43,-22 89,-43 139,-59 49,-17 102,-30 156,-39l10 -2 11 -1 21 -3 21 -2 21 -2 20 -1c7,-1 14,-1 21,-1 14,0 28,0 42,1 56,3 111,13 163,30 53,18 101,43 147,71 11,7 23,14 34,21 6,4 12,7 17,11 6,3 13,7 19,11 4,1 7,2 10,4l2 0 1 1 1 0c-1,0 2,1 1,1l5 1c7,2 14,3 20,5 13,2 26,4 38,6 50,6 97,9 141,11 43,2 84,3 119,2 16,0 29,7 39,17 10,10 16,22 21,33 9,23 12,43 13,56 2,13 2,21 2,21l6 -1z"/>
     </clipPath>
     <clipPath id="id1" style="clip-rule:nonzero">
      <path d="M1196 753c0,0 -205,-109 -376,-90l0 90 376 0z"/>
     </clipPath>
     <clipPath id="id2" style="clip-rule:nonzero">
      <path d="M796 661l0 92 -251 0c0,0 27,-68 251,-92z"/>
     </clipPath>
     <clipPath id="id3" style="clip-rule:nonzero">
      <path d="M167 1150l0 -334 115 0c26,0 46,1 60,4 19,5 35,13 49,24 17,15 31,34 39,57 9,24 13,50 13,80 0,25 -3,48 -8,67 -6,20 -14,36 -23,49 -10,13 -20,23 -31,30 -11,8 -24,13 -40,17 -15,4 -33,6 -53,6l-121 0zm44 -39l72 0c22,0 39,-2 51,-6 13,-5 23,-10 30,-18 11,-10 19,-24 25,-42 6,-18 9,-39 9,-65 0,-35 -6,-62 -18,-81 -11,-18 -25,-31 -41,-37 -12,-5 -31,-7 -58,-7l-70 0 0 256z"/>
     </clipPath>
     <clipPath id="id4" style="clip-rule:nonzero">
      <path d="M499 862l0 -46 41 0 0 46 -41 0zm0 288l0 -242 41 0 0 242 -41 0z"/>
     </clipPath>
     <clipPath id="id5" style="clip-rule:nonzero">
      <path d="M602 1150l0 -334 41 0 0 334 -41 0z"/>
     </clipPath>
     <clipPath id="id6" style="clip-rule:nonzero">
      <path d="M691 1029c0,-45 13,-78 38,-100 20,-18 46,-27 76,-27 33,0 60,11 81,33 22,22 32,52 32,90 0,31 -5,56 -14,74 -9,18 -23,31 -41,41 -18,10 -37,15 -58,15 -34,0 -62,-11 -82,-32 -21,-22 -32,-53 -32,-94zm42 0c0,31 7,54 21,69 13,16 30,23 51,23 20,0 37,-7 51,-23 13,-15 20,-39 20,-70 0,-30 -7,-53 -20,-68 -14,-16 -31,-23 -51,-23 -21,0 -38,7 -51,22 -14,16 -21,39 -21,70z"/>
     </clipPath>
     <clipPath id="id7" style="clip-rule:nonzero">
      <path d="M1210 1033l44 11c-9,36 -26,64 -50,83 -24,19 -53,29 -88,29 -36,0 -65,-8 -88,-22 -23,-15 -40,-36 -51,-64 -12,-28 -18,-58 -18,-90 0,-35 6,-65 20,-91 13,-26 32,-45 57,-59 24,-13 51,-20 80,-20 34,0 62,8 85,25 23,18 38,41 47,72l-43 11c-8,-25 -19,-42 -34,-54 -14,-11 -33,-16 -55,-16 -26,0 -47,6 -65,18 -17,13 -29,29 -36,50 -7,21 -10,42 -10,64 0,28 4,53 12,74 8,22 21,37 39,48 17,11 36,16 56,16 25,0 46,-7 63,-22 17,-14 29,-35 35,-63z"/>
     </clipPath>
     <clipPath id="id8" style="clip-rule:nonzero">
      <path d="M1462 1120c-15,13 -30,22 -44,27 -14,5 -29,8 -46,8 -26,0 -47,-6 -61,-19 -14,-13 -21,-30 -21,-50 0,-12 2,-23 8,-32 5,-10 12,-18 21,-24 9,-6 18,-10 29,-13 9,-3 21,-5 37,-7 33,-4 58,-8 73,-14 1,-5 1,-9 1,-10 0,-17 -4,-29 -12,-36 -11,-9 -26,-13 -47,-13 -19,0 -34,3 -43,10 -9,6 -16,18 -20,36l-40 -6c3,-17 9,-31 18,-42 8,-10 20,-18 36,-24 16,-6 34,-9 55,-9 21,0 38,3 51,8 13,5 22,11 28,18 6,8 11,17 13,28 1,7 2,20 2,38l0 54c0,38 1,62 3,73 1,10 5,20 10,29l-43 0c-4,-9 -7,-19 -8,-30zm-3 -91c-15,6 -38,11 -68,15 -17,2 -29,5 -36,8 -7,3 -12,8 -16,13 -4,6 -6,13 -6,20 0,11 5,20 13,27 8,7 20,11 36,11 16,0 30,-4 43,-10 12,-7 21,-17 27,-29 4,-9 6,-23 6,-41l1 -14z"/>
     </clipPath>
     <clipPath id="id9" style="clip-rule:nonzero">
      <path d="M1563 1150l0 -242 37 0 0 37c9,-18 18,-29 26,-34 8,-6 17,-9 26,-9 14,0 28,5 43,13l-15 38c-10,-5 -20,-8 -30,-8 -9,0 -17,3 -24,8 -7,5 -12,13 -15,22 -5,15 -7,31 -7,48l0 127 -41 0z"/>
     </clipPath>
     <clipPath id="id10" style="clip-rule:nonzero">
      <path d="M643 1236l9 2c-2,7 -5,13 -10,17 -5,4 -11,6 -18,6 -7,0 -13,-2 -18,-5 -5,-3 -8,-7 -10,-13 -3,-5 -4,-12 -4,-18 0,-7 1,-13 4,-19 3,-5 7,-9 12,-12 5,-2 10,-4 16,-4 7,0 13,2 17,6 5,3 8,8 10,14l-9 2c-2,-5 -4,-8 -7,-11 -3,-2 -7,-3 -11,-3 -5,0 -10,1 -13,4 -4,2 -6,6 -8,10 -1,4 -2,8 -2,13 0,6 1,11 3,15 2,4 4,8 8,10 3,2 7,3 11,3 5,0 9,-1 13,-4 3,-3 6,-8 7,-13z"/>
     </clipPath>
     <clipPath id="id11" style="clip-rule:nonzero">
      <path d="M659 1235c0,-9 3,-16 8,-20 4,-4 9,-6 15,-6 7,0 12,2 17,7 4,4 6,10 6,18 0,7 -1,11 -3,15 -2,4 -4,7 -8,9 -4,2 -8,3 -12,3 -7,0 -12,-3 -17,-7 -4,-4 -6,-11 -6,-19zm9 0c0,6 1,11 4,14 2,3 6,5 10,5 4,0 8,-2 10,-5 3,-3 5,-8 5,-14 0,-6 -2,-11 -5,-14 -2,-3 -6,-5 -10,-5 -4,0 -8,2 -10,5 -3,3 -4,8 -4,14z"/>
     </clipPath>
     <clipPath id="id12" style="clip-rule:nonzero">
      <path d="M715 1260l0 -50 7 0 0 7c4,-5 9,-8 16,-8 3,0 6,1 8,2 3,1 5,2 6,4 1,2 2,4 2,6 1,2 1,4 1,8l0 31 -8 0 0 -30c0,-4 -1,-6 -1,-8 -1,-2 -2,-3 -4,-4 -2,-1 -3,-2 -6,-2 -3,0 -6,2 -9,4 -2,2 -4,6 -4,13l0 27 -8 0z"/>
     </clipPath>
     <clipPath id="id13" style="clip-rule:nonzero">
      <path d="M800 1241l8 2c-1,5 -3,10 -7,13 -3,3 -8,5 -13,5 -7,0 -12,-3 -17,-7 -4,-4 -6,-11 -6,-19 0,-5 1,-10 3,-14 2,-4 4,-7 8,-9 4,-2 7,-3 12,-3 5,0 9,2 13,4 3,3 5,7 6,12l-8 1c0,-3 -2,-6 -4,-7 -2,-2 -4,-3 -7,-3 -4,0 -8,2 -10,5 -3,3 -4,7 -4,14 0,6 1,11 4,14 2,3 5,5 10,5 3,0 6,-1 8,-3 2,-2 3,-5 4,-10z"/>
     </clipPath>
     <clipPath id="id14" style="clip-rule:nonzero">
      <path d="M849 1244l8 1c-1,5 -3,9 -7,11 -4,3 -8,5 -14,5 -7,0 -13,-3 -17,-7 -4,-5 -7,-11 -7,-19 0,-8 3,-14 7,-19 4,-5 10,-7 16,-7 7,0 12,2 17,7 4,4 6,11 6,19 0,0 0,1 0,2l-37 0c0,5 2,10 5,12 2,3 6,5 10,5 3,0 6,-1 8,-3 2,-1 4,-4 5,-7zm-27 -14l27 0c0,-4 -1,-7 -3,-9 -3,-3 -6,-5 -11,-5 -3,0 -7,1 -9,4 -3,2 -4,6 -4,10z"/>
     </clipPath>
     <clipPath id="id15" style="clip-rule:nonzero">
      <path d="M868 1260l0 -50 7 0 0 8c2,-4 4,-6 6,-7 1,-1 3,-2 5,-2 3,0 6,1 9,3l-3 8c-2,-2 -4,-2 -6,-2 -2,0 -4,0 -5,1 -2,2 -3,3 -3,5 -1,3 -2,6 -2,10l0 26 -8 0z"/>
     </clipPath>
     <clipPath id="id16" style="clip-rule:nonzero">
      <path d="M896 1245l9 -2c0,4 1,6 3,8 3,2 6,3 9,3 4,0 7,-1 9,-3 2,-1 3,-3 3,-5 0,-2 -1,-3 -3,-5 -1,0 -4,-1 -8,-2 -6,-2 -11,-3 -13,-4 -2,-2 -4,-3 -5,-5 -2,-2 -2,-4 -2,-7 0,-2 0,-4 1,-6 1,-2 3,-3 4,-4 2,-1 3,-2 6,-3 2,0 4,-1 7,-1 4,0 7,1 10,2 3,1 5,2 7,4 1,2 2,5 2,8l-8 1c0,-2 -1,-4 -3,-6 -2,-1 -4,-2 -8,-2 -3,0 -6,1 -8,2 -1,1 -2,3 -2,4 0,1 0,2 1,3 1,1 2,2 3,3 1,0 3,1 7,2 6,1 10,3 13,4 2,1 4,2 5,4 2,2 2,4 2,7 0,3 -1,5 -2,8 -2,2 -4,4 -7,6 -3,1 -7,2 -11,2 -6,0 -11,-2 -14,-4 -4,-3 -6,-7 -7,-12z"/>
     </clipPath>
     <clipPath id="id17" style="clip-rule:nonzero">
      <path d="M944 1245l8 -2c1,4 2,6 4,8 2,2 5,3 9,3 4,0 7,-1 8,-3 2,-1 3,-3 3,-5 0,-2 -1,-3 -2,-5 -1,0 -4,-1 -9,-2 -6,-2 -10,-3 -13,-4 -2,-2 -4,-3 -5,-5 -1,-2 -2,-4 -2,-7 0,-2 1,-4 2,-6 1,-2 2,-3 4,-4 1,-1 3,-2 5,-3 2,0 5,-1 7,-1 4,0 8,1 11,2 2,1 5,2 6,4 1,2 2,5 3,8l-8 1c-1,-2 -2,-4 -4,-6 -1,-1 -4,-2 -7,-2 -4,0 -7,1 -8,2 -2,1 -3,3 -3,4 0,1 1,2 1,3 1,1 2,2 4,3 0,0 3,1 7,2 6,1 10,3 12,4 3,1 4,2 6,4 1,2 2,4 2,7 0,3 -1,5 -3,8 -1,2 -4,4 -7,6 -3,1 -6,2 -10,2 -6,0 -11,-2 -15,-4 -3,-3 -5,-7 -6,-12z"/>
     </clipPath>
     <clipPath id="id18" style="clip-rule:nonzero">
      <path d="M995 1201l0 -9 8 0 0 9 -8 0zm0 59l0 -50 8 0 0 50 -8 0z"/>
     </clipPath>
     <clipPath id="id19" style="clip-rule:nonzero">
      <path d="M1013 1235c0,-9 2,-16 7,-20 4,-4 10,-6 16,-6 6,0 12,2 16,7 5,4 7,10 7,18 0,7 -1,11 -3,15 -2,4 -5,7 -8,9 -4,2 -8,3 -12,3 -7,0 -13,-3 -17,-7 -4,-4 -6,-11 -6,-19zm8 0c0,6 2,11 4,14 3,3 7,5 11,5 4,0 7,-2 10,-5 3,-3 4,-8 4,-14 0,-6 -1,-11 -4,-14 -3,-3 -6,-5 -10,-5 -4,0 -8,2 -11,5 -2,3 -4,8 -4,14z"/>
     </clipPath>
     <clipPath id="id20" style="clip-rule:nonzero">
      <path d="M1069 1260l0 -50 7 0 0 7c4,-5 9,-8 16,-8 3,0 5,1 8,2 2,1 4,2 5,4 2,2 3,4 3,6 0,2 1,4 1,8l0 31 -9 0 0 -30c0,-4 0,-6 -1,-8 0,-2 -2,-3 -3,-4 -2,-1 -4,-2 -6,-2 -4,0 -7,2 -9,4 -3,2 -4,6 -4,13l0 27 -8 0z"/>
     </clipPath>
     <clipPath id="id21" style="clip-rule:nonzero">
      <path d="M1154 1253c-4,3 -7,5 -9,6 -3,1 -6,2 -10,2 -5,0 -9,-2 -12,-4 -3,-3 -4,-6 -4,-10 0,-3 0,-5 1,-7 1,-2 3,-4 4,-5 2,-1 4,-2 7,-3 1,0 4,0 7,-1 7,-1 12,-2 15,-3 0,-1 0,-2 0,-2 0,-3 -1,-6 -2,-7 -3,-2 -6,-3 -10,-3 -4,0 -7,1 -9,2 -2,2 -3,4 -4,8l-8 -2c1,-3 2,-6 4,-8 1,-2 4,-4 7,-5 3,-1 7,-2 11,-2 4,0 8,1 11,2 2,1 4,2 5,3 2,2 2,4 3,6 0,2 0,4 0,8l0 11c0,8 1,12 1,15 0,2 1,4 2,6l-9 0c-1,-2 -1,-4 -1,-7zm-1 -18c-3,1 -8,2 -14,3 -3,0 -6,1 -7,2 -2,0 -3,1 -3,2 -1,1 -2,3 -2,4 0,2 1,4 3,6 2,1 4,2 7,2 4,0 6,-1 9,-2 2,-1 4,-3 6,-6 0,-2 1,-4 1,-8l0 -3z"/>
     </clipPath>
     <clipPath id="id22" style="clip-rule:nonzero">
      <path d="M1174 1260l0 -50 8 0 0 8c2,-4 3,-6 5,-7 2,-1 3,-2 5,-2 3,0 6,1 9,3l-3 8c-2,-2 -4,-2 -6,-2 -2,0 -4,0 -5,1 -2,2 -3,3 -3,5 -1,3 -2,6 -2,10l0 26 -8 0z"/>
     </clipPath>
     <clipPath id="id23" style="clip-rule:nonzero">
      <path d="M1206 1201l0 -9 8 0 0 9 -8 0zm0 59l0 -50 8 0 0 50 -8 0z"/>
     </clipPath>
     <clipPath id="id24" style="clip-rule:nonzero">
      <path d="M1259 1253c-3,3 -6,5 -9,6 -3,1 -6,2 -9,2 -5,0 -10,-2 -13,-4 -2,-3 -4,-6 -4,-10 0,-3 1,-5 2,-7 1,-2 2,-4 4,-5 2,-1 4,-2 6,-3 2,0 4,0 7,-1 7,-1 12,-2 15,-3 0,-1 0,-2 0,-2 0,-3 0,-6 -2,-7 -2,-2 -5,-3 -9,-3 -4,0 -7,1 -9,2 -2,2 -3,4 -4,8l-9 -2c1,-3 2,-6 4,-8 2,-2 4,-4 8,-5 3,-1 7,-2 11,-2 4,0 7,1 10,2 3,1 5,2 6,3 1,2 2,4 2,6 1,2 1,4 1,8l0 11c0,8 0,12 0,15 1,2 1,4 2,6l-8 0c-1,-2 -2,-4 -2,-7zm-1 -18c-3,1 -7,2 -13,3 -4,0 -6,1 -8,2 -1,0 -2,1 -3,2 -1,1 -1,3 -1,4 0,2 1,4 3,6 1,1 4,2 7,2 3,0 6,-1 9,-2 2,-1 4,-3 5,-6 1,-2 1,-4 1,-8l0 -3z"/>
     </clipPath>
 </defs>
 <g id="Camada_x0020_1">
  <metadata id="CorelCorpID_0Corel-Layer"/>
  <g id="_422835312">
   <g>
    <path class="fil0" d="M1711 902c0,0 0,-7 -1,-21 -1,-13 -2,-33 -11,-58 -4,-13 -10,-26 -21,-39 -5,-6 -12,-12 -20,-16 -8,-4 -18,-7 -28,-7 -35,-1 -74,-4 -117,-8 -43,-4 -90,-9 -138,-18 -24,-5 -49,-8 -70,-19 -5,-3 -9,-6 -15,-9 -5,-4 -11,-8 -16,-11 -11,-8 -22,-15 -33,-23 -46,-31 -97,-59 -152,-80 -55,-21 -114,-34 -173,-40 -15,-1 -30,-1 -45,-2 -8,-1 -15,-1 -23,0l-22 0 -23 0 -21 2 -22 2 -10 1 -11 1c-60,6 -116,18 -170,35 -53,17 -103,41 -147,67 -21,13 -42,26 -62,38 -4,2 -9,5 -13,7l-7 3 -3 2 -2 1c-2,0 -4,1 -5,1l-8 2c-6,1 -9,1 -14,2 -21,2 -41,2 -62,4 -20,1 -41,4 -60,10 -5,2 -9,5 -14,7 -5,3 -9,5 -13,8 -4,4 -8,7 -11,11 -2,2 -3,3 -5,6 -1,2 -2,4 -3,5 -7,13 -14,28 -19,40 -9,24 -14,44 -17,57 -3,14 -4,21 -4,21l6 1c0,0 2,-6 8,-18 6,-13 14,-31 27,-52 6,-11 12,-21 22,-33l4 -4 3 -3c2,-2 4,-4 7,-5 2,-2 6,-3 9,-4 3,-1 6,-2 10,-3 15,-3 32,-4 51,-3 19,1 40,3 63,2 6,0 13,0 19,-1l8 0 1 0 1 -1 1 0 3 -1 6 -1 5 -1 5 -2 9 -4c6,-2 12,-5 18,-7 20,-11 42,-23 64,-34 43,-22 89,-43 139,-59 49,-17 102,-30 156,-39l10 -2 11 -1 21 -3 21 -2 21 -2 20 -1c7,-1 14,-1 21,-1 14,0 28,0 42,1 56,3 111,13 163,30 53,18 101,43 147,71 11,7 23,14 34,21 6,4 12,7 17,11 6,3 13,7 19,11 4,1 7,2 10,4l2 0 1 1 1 0c-1,0 2,1 1,1l5 1c7,2 14,3 20,5 13,2 26,4 38,6 50,6 97,9 141,11 43,2 84,3 119,2 16,0 29,7 39,17 10,10 16,22 21,33 9,23 12,43 13,56 2,13 2,21 2,21l6 -1z"/>
    <g style="clip-path:url(#id0)">
     <g>
      <polygon id="1" class="fil1" points="889,493 859,473 743,643 727,633 535,913 565,933 681,762 697,773 "/>
      <polygon class="fil2" points="1352,432 1323,412 1206,583 1190,572 999,852 1028,872 1145,702 1160,712 "/>
     </g>
    </g>
    <path class="fil3" d="M1711 902c0,0 0,-7 -1,-21 -1,-13 -2,-33 -11,-58 -4,-13 -10,-26 -21,-39 -5,-6 -12,-12 -20,-16 -8,-4 -18,-7 -28,-7 -35,-1 -74,-4 -117,-8 -43,-4 -90,-9 -138,-18 -24,-5 -49,-8 -70,-19 -5,-3 -9,-6 -15,-9 -5,-4 -11,-8 -16,-11 -11,-8 -22,-15 -33,-23 -46,-31 -97,-59 -152,-80 -55,-21 -114,-34 -173,-40 -15,-1 -30,-1 -45,-2 -8,-1 -15,-1 -23,0l-22 0 -23 0 -21 2 -22 2 -10 1 -11 1c-60,6 -116,18 -170,35 -53,17 -103,41 -147,67 -21,13 -42,26 -62,38 -4,2 -9,5 -13,7l-7 3 -3 2 -2 1c-2,0 -4,1 -5,1l-8 2c-6,1 -9,1 -14,2 -21,2 -41,2 -62,4 -20,1 -41,4 -60,10 -5,2 -9,5 -14,7 -5,3 -9,5 -13,8 -4,4 -8,7 -11,11 -2,2 -3,3 -5,6 -1,2 -2,4 -3,5 -7,13 -14,28 -19,40 -9,24 -14,44 -17,57 -3,14 -4,21 -4,21l6 1c0,0 2,-6 8,-18 6,-13 14,-31 27,-52 6,-11 12,-21 22,-33l4 -4 3 -3c2,-2 4,-4 7,-5 2,-2 6,-3 9,-4 3,-1 6,-2 10,-3 15,-3 32,-4 51,-3 19,1 40,3 63,2 6,0 13,0 19,-1l8 0 1 0 1 -1 1 0 3 -1 6 -1 5 -1 5 -2 9 -4c6,-2 12,-5 18,-7 20,-11 42,-23 64,-34 43,-22 89,-43 139,-59 49,-17 102,-30 156,-39l10 -2 11 -1 21 -3 21 -2 21 -2 20 -1c7,-1 14,-1 21,-1 14,0 28,0 42,1 56,3 111,13 163,30 53,18 101,43 147,71 11,7 23,14 34,21 6,4 12,7 17,11 6,3 13,7 19,11 4,1 7,2 10,4l2 0 1 1 1 0c-1,0 2,1 1,1l5 1c7,2 14,3 20,5 13,2 26,4 38,6 50,6 97,9 141,11 43,2 84,3 119,2 16,0 29,7 39,17 10,10 16,22 21,33 9,23 12,43 13,56 2,13 2,21 2,21l6 -1z"/>
    <path class="fil0" d="M1196 753c0,0 -205,-109 -376,-90l0 90 376 0z"/>
    <g style="clip-path:url(#id1)">
     <g>
      <polygon id="1" class="fil1" points="889,493 859,473 743,643 727,633 535,913 565,933 681,762 697,773 "/>
      <polygon class="fil2" points="1352,432 1323,412 1206,583 1190,572 999,852 1028,872 1145,702 1160,712 "/>
     </g>
    </g>
    <path class="fil3" d="M1196 753c0,0 -205,-109 -376,-90l0 90 376 0z"/>
    <path class="fil0" d="M796 661l0 92 -251 0c0,0 27,-68 251,-92z"/>
    <g style="clip-path:url(#id2)">
     <g>
      <polygon id="1" class="fil1" points="889,493 859,473 743,643 727,633 535,913 565,933 681,762 697,773 "/>
      <polygon class="fil2" points="1352,432 1323,412 1206,583 1190,572 999,852 1028,872 1145,702 1160,712 "/>
     </g>
    </g>
    <path class="fil3" d="M796 661l0 92 -251 0c0,0 27,-68 251,-92z"/>
   </g>
   <g>
    <path class="fil4" d="M167 1150l0 -334 115 0c26,0 46,1 60,4 19,5 35,13 49,24 17,15 31,34 39,57 9,24 13,50 13,80 0,25 -3,48 -8,67 -6,20 -14,36 -23,49 -10,13 -20,23 -31,30 -11,8 -24,13 -40,17 -15,4 -33,6 -53,6l-121 0zm44 -39l72 0c22,0 39,-2 51,-6 13,-5 23,-10 30,-18 11,-10 19,-24 25,-42 6,-18 9,-39 9,-65 0,-35 -6,-62 -18,-81 -11,-18 -25,-31 -41,-37 -12,-5 -31,-7 -58,-7l-70 0 0 256zm288 -249l0 -46 41 0 0 46 -41 0zm0 288l0 -242 41 0 0 242 -41 0zm103 0l0 -334 41 0 0 334 -41 0zm89 -121c0,-45 13,-78 38,-100 20,-18 46,-27 76,-27 33,0 60,11 81,33 22,22 32,52 32,90 0,31 -5,56 -14,74 -9,18 -23,31 -41,41 -18,10 -37,15 -58,15 -34,0 -62,-11 -82,-32 -21,-22 -32,-53 -32,-94zm42 0c0,31 7,54 21,69 13,16 30,23 51,23 20,0 37,-7 51,-23 13,-15 20,-39 20,-70 0,-30 -7,-53 -20,-68 -14,-16 -31,-23 -51,-23 -21,0 -38,7 -51,22 -14,16 -21,39 -21,70z"/>
    <g style="clip-path:url(#id3)">
     <g>
      <polygon id="1" class="fil5" points="448,760 419,740 302,910 286,899 95,1180 124,1200 241,1029 256,1040 "/>
      <polygon class="fil6" points="1007,758 978,738 861,908 846,897 654,1178 683,1198 800,1027 816,1038 "/>
      <polygon class="fil6" points="1713,859 1683,839 1567,1009 1551,999 1359,1279 1388,1299 1505,1128 1521,1139 "/>
     </g>
    </g>
    <g style="clip-path:url(#id4)">
     <g>
      <polygon class="fil5" points="448,760 419,740 302,910 286,899 95,1180 124,1200 241,1029 256,1040 "/>
      <polygon class="fil6" points="1007,758 978,738 861,908 846,897 654,1178 683,1198 800,1027 816,1038 "/>
      <polygon class="fil6" points="1713,859 1683,839 1567,1009 1551,999 1359,1279 1388,1299 1505,1128 1521,1139 "/>
     </g>
    </g>
    <g style="clip-path:url(#id5)">
     <g>
      <polygon class="fil5" points="448,760 419,740 302,910 286,899 95,1180 124,1200 241,1029 256,1040 "/>
      <polygon class="fil6" points="1007,758 978,738 861,908 846,897 654,1178 683,1198 800,1027 816,1038 "/>
      <polygon class="fil6" points="1713,859 1683,839 1567,1009 1551,999 1359,1279 1388,1299 1505,1128 1521,1139 "/>
     </g>
    </g>
    <g style="clip-path:url(#id6)">
     <g>
      <polygon class="fil5" points="448,760 419,740 302,910 286,899 95,1180 124,1200 241,1029 256,1040 "/>
      <polygon class="fil6" points="1007,758 978,738 861,908 846,897 654,1178 683,1198 800,1027 816,1038 "/>
      <polygon class="fil6" points="1713,859 1683,839 1567,1009 1551,999 1359,1279 1388,1299 1505,1128 1521,1139 "/>
     </g>
    </g>
    <path class="fil7" d="M1210 1033l44 11c-9,36 -26,64 -50,83 -24,19 -53,29 -88,29 -36,0 -65,-8 -88,-22 -23,-15 -40,-36 -51,-64 -12,-28 -18,-58 -18,-90 0,-35 6,-65 20,-91 13,-26 32,-45 57,-59 24,-13 51,-20 80,-20 34,0 62,8 85,25 23,18 38,41 47,72l-43 11c-8,-25 -19,-42 -34,-54 -14,-11 -33,-16 -55,-16 -26,0 -47,6 -65,18 -17,13 -29,29 -36,50 -7,21 -10,42 -10,64 0,28 4,53 12,74 8,22 21,37 39,48 17,11 36,16 56,16 25,0 46,-7 63,-22 17,-14 29,-35 35,-63zm252 87c-15,13 -30,22 -44,27 -14,5 -29,8 -46,8 -26,0 -47,-6 -61,-19 -14,-13 -21,-30 -21,-50 0,-12 2,-23 8,-32 5,-10 12,-18 21,-24 9,-6 18,-10 29,-13 9,-3 21,-5 37,-7 33,-4 58,-8 73,-14 1,-5 1,-9 1,-10 0,-17 -4,-29 -12,-36 -11,-9 -26,-13 -47,-13 -19,0 -34,3 -43,10 -9,6 -16,18 -20,36l-40 -6c3,-17 9,-31 18,-42 8,-10 20,-18 36,-24 16,-6 34,-9 55,-9 21,0 38,3 51,8 13,5 22,11 28,18 6,8 11,17 13,28 1,7 2,20 2,38l0 54c0,38 1,62 3,73 1,10 5,20 10,29l-43 0c-4,-9 -7,-19 -8,-30zm-3 -91c-15,6 -38,11 -68,15 -17,2 -29,5 -36,8 -7,3 -12,8 -16,13 -4,6 -6,13 -6,20 0,11 5,20 13,27 8,7 20,11 36,11 16,0 30,-4 43,-10 12,-7 21,-17 27,-29 4,-9 6,-23 6,-41l1 -14zm104 121l0 -242 37 0 0 37c9,-18 18,-29 26,-34 8,-6 17,-9 26,-9 14,0 28,5 43,13l-15 38c-10,-5 -20,-8 -30,-8 -9,0 -17,3 -24,8 -7,5 -12,13 -15,22 -5,15 -7,31 -7,48l0 127 -41 0z"/>
    <g style="clip-path:url(#id7)">
     <g>
      <polygon id="1" class="fil5" points="448,760 419,740 302,910 286,899 95,1180 124,1200 241,1029 256,1040 "/>
      <polygon class="fil6" points="1007,758 978,738 861,908 846,897 654,1178 683,1198 800,1027 816,1038 "/>
      <polygon class="fil6" points="1713,859 1683,839 1567,1009 1551,999 1359,1279 1388,1299 1505,1128 1521,1139 "/>
     </g>
    </g>
    <g style="clip-path:url(#id8)">
     <g>
      <polygon class="fil5" points="448,760 419,740 302,910 286,899 95,1180 124,1200 241,1029 256,1040 "/>
      <polygon class="fil6" points="1007,758 978,738 861,908 846,897 654,1178 683,1198 800,1027 816,1038 "/>
      <polygon class="fil6" points="1713,859 1683,839 1567,1009 1551,999 1359,1279 1388,1299 1505,1128 1521,1139 "/>
     </g>
    </g>
    <g style="clip-path:url(#id9)">
     <g>
      <polygon class="fil5" points="448,760 419,740 302,910 286,899 95,1180 124,1200 241,1029 256,1040 "/>
      <polygon class="fil6" points="1007,758 978,738 861,908 846,897 654,1178 683,1198 800,1027 816,1038 "/>
      <polygon class="fil6" points="1713,859 1683,839 1567,1009 1551,999 1359,1279 1388,1299 1505,1128 1521,1139 "/>
     </g>
    </g>
    <path class="fil0" d="M643 1236l9 2c-2,7 -5,13 -10,17 -5,4 -11,6 -18,6 -7,0 -13,-2 -18,-5 -5,-3 -8,-7 -10,-13 -3,-5 -4,-12 -4,-18 0,-7 1,-13 4,-19 3,-5 7,-9 12,-12 5,-2 10,-4 16,-4 7,0 13,2 17,6 5,3 8,8 10,14l-9 2c-2,-5 -4,-8 -7,-11 -3,-2 -7,-3 -11,-3 -5,0 -10,1 -13,4 -4,2 -6,6 -8,10 -1,4 -2,8 -2,13 0,6 1,11 3,15 2,4 4,8 8,10 3,2 7,3 11,3 5,0 9,-1 13,-4 3,-3 6,-8 7,-13zm16 -1c0,-9 3,-16 8,-20 4,-4 9,-6 15,-6 7,0 12,2 17,7 4,4 6,10 6,18 0,7 -1,11 -3,15 -2,4 -4,7 -8,9 -4,2 -8,3 -12,3 -7,0 -12,-3 -17,-7 -4,-4 -6,-11 -6,-19zm9 0c0,6 1,11 4,14 2,3 6,5 10,5 4,0 8,-2 10,-5 3,-3 5,-8 5,-14 0,-6 -2,-11 -5,-14 -2,-3 -6,-5 -10,-5 -4,0 -8,2 -10,5 -3,3 -4,8 -4,14zm47 25l0 -50 7 0 0 7c4,-5 9,-8 16,-8 3,0 6,1 8,2 3,1 5,2 6,4 1,2 2,4 2,6 1,2 1,4 1,8l0 31 -8 0 0 -30c0,-4 -1,-6 -1,-8 -1,-2 -2,-3 -4,-4 -2,-1 -3,-2 -6,-2 -3,0 -6,2 -9,4 -2,2 -4,6 -4,13l0 27 -8 0zm85 -19l8 2c-1,5 -3,10 -7,13 -3,3 -8,5 -13,5 -7,0 -12,-3 -17,-7 -4,-4 -6,-11 -6,-19 0,-5 1,-10 3,-14 2,-4 4,-7 8,-9 4,-2 7,-3 12,-3 5,0 9,2 13,4 3,3 5,7 6,12l-8 1c0,-3 -2,-6 -4,-7 -2,-2 -4,-3 -7,-3 -4,0 -8,2 -10,5 -3,3 -4,7 -4,14 0,6 1,11 4,14 2,3 5,5 10,5 3,0 6,-1 8,-3 2,-2 3,-5 4,-10zm49 3l8 1c-1,5 -3,9 -7,11 -4,3 -8,5 -14,5 -7,0 -13,-3 -17,-7 -4,-5 -7,-11 -7,-19 0,-8 3,-14 7,-19 4,-5 10,-7 16,-7 7,0 12,2 17,7 4,4 6,11 6,19 0,0 0,1 0,2l-37 0c0,5 2,10 5,12 2,3 6,5 10,5 3,0 6,-1 8,-3 2,-1 4,-4 5,-7zm-27 -14l27 0c0,-4 -1,-7 -3,-9 -3,-3 -6,-5 -11,-5 -3,0 -7,1 -9,4 -3,2 -4,6 -4,10zm46 30l0 -50 7 0 0 8c2,-4 4,-6 6,-7 1,-1 3,-2 5,-2 3,0 6,1 9,3l-3 8c-2,-2 -4,-2 -6,-2 -2,0 -4,0 -5,1 -2,2 -3,3 -3,5 -1,3 -2,6 -2,10l0 26 -8 0zm28 -15l9 -2c0,4 1,6 3,8 3,2 6,3 9,3 4,0 7,-1 9,-3 2,-1 3,-3 3,-5 0,-2 -1,-3 -3,-5 -1,0 -4,-1 -8,-2 -6,-2 -11,-3 -13,-4 -2,-2 -4,-3 -5,-5 -2,-2 -2,-4 -2,-7 0,-2 0,-4 1,-6 1,-2 3,-3 4,-4 2,-1 3,-2 6,-3 2,0 4,-1 7,-1 4,0 7,1 10,2 3,1 5,2 7,4 1,2 2,5 2,8l-8 1c0,-2 -1,-4 -3,-6 -2,-1 -4,-2 -8,-2 -3,0 -6,1 -8,2 -1,1 -2,3 -2,4 0,1 0,2 1,3 1,1 2,2 3,3 1,0 3,1 7,2 6,1 10,3 13,4 2,1 4,2 5,4 2,2 2,4 2,7 0,3 -1,5 -2,8 -2,2 -4,4 -7,6 -3,1 -7,2 -11,2 -6,0 -11,-2 -14,-4 -4,-3 -6,-7 -7,-12zm48 0l8 -2c1,4 2,6 4,8 2,2 5,3 9,3 4,0 7,-1 8,-3 2,-1 3,-3 3,-5 0,-2 -1,-3 -2,-5 -1,0 -4,-1 -9,-2 -6,-2 -10,-3 -13,-4 -2,-2 -4,-3 -5,-5 -1,-2 -2,-4 -2,-7 0,-2 1,-4 2,-6 1,-2 2,-3 4,-4 1,-1 3,-2 5,-3 2,0 5,-1 7,-1 4,0 8,1 11,2 2,1 5,2 6,4 1,2 2,5 3,8l-8 1c-1,-2 -2,-4 -4,-6 -1,-1 -4,-2 -7,-2 -4,0 -7,1 -8,2 -2,1 -3,3 -3,4 0,1 1,2 1,3 1,1 2,2 4,3 0,0 3,1 7,2 6,1 10,3 12,4 3,1 4,2 6,4 1,2 2,4 2,7 0,3 -1,5 -3,8 -1,2 -4,4 -7,6 -3,1 -6,2 -10,2 -6,0 -11,-2 -15,-4 -3,-3 -5,-7 -6,-12zm51 -44l0 -9 8 0 0 9 -8 0zm0 59l0 -50 8 0 0 50 -8 0zm18 -25c0,-9 2,-16 7,-20 4,-4 10,-6 16,-6 6,0 12,2 16,7 5,4 7,10 7,18 0,7 -1,11 -3,15 -2,4 -5,7 -8,9 -4,2 -8,3 -12,3 -7,0 -13,-3 -17,-7 -4,-4 -6,-11 -6,-19zm8 0c0,6 2,11 4,14 3,3 7,5 11,5 4,0 7,-2 10,-5 3,-3 4,-8 4,-14 0,-6 -1,-11 -4,-14 -3,-3 -6,-5 -10,-5 -4,0 -8,2 -11,5 -2,3 -4,8 -4,14zm48 25l0 -50 7 0 0 7c4,-5 9,-8 16,-8 3,0 5,1 8,2 2,1 4,2 5,4 2,2 3,4 3,6 0,2 1,4 1,8l0 31 -9 0 0 -30c0,-4 0,-6 -1,-8 0,-2 -2,-3 -3,-4 -2,-1 -4,-2 -6,-2 -4,0 -7,2 -9,4 -3,2 -4,6 -4,13l0 27 -8 0zm85 -7c-4,3 -7,5 -9,6 -3,1 -6,2 -10,2 -5,0 -9,-2 -12,-4 -3,-3 -4,-6 -4,-10 0,-3 0,-5 1,-7 1,-2 3,-4 4,-5 2,-1 4,-2 7,-3 1,0 4,0 7,-1 7,-1 12,-2 15,-3 0,-1 0,-2 0,-2 0,-3 -1,-6 -2,-7 -3,-2 -6,-3 -10,-3 -4,0 -7,1 -9,2 -2,2 -3,4 -4,8l-8 -2c1,-3 2,-6 4,-8 1,-2 4,-4 7,-5 3,-1 7,-2 11,-2 4,0 8,1 11,2 2,1 4,2 5,3 2,2 2,4 3,6 0,2 0,4 0,8l0 11c0,8 1,12 1,15 0,2 1,4 2,6l-9 0c-1,-2 -1,-4 -1,-7zm-1 -18c-3,1 -8,2 -14,3 -3,0 -6,1 -7,2 -2,0 -3,1 -3,2 -1,1 -2,3 -2,4 0,2 1,4 3,6 2,1 4,2 7,2 4,0 6,-1 9,-2 2,-1 4,-3 6,-6 0,-2 1,-4 1,-8l0 -3zm21 25l0 -50 8 0 0 8c2,-4 3,-6 5,-7 2,-1 3,-2 5,-2 3,0 6,1 9,3l-3 8c-2,-2 -4,-2 -6,-2 -2,0 -4,0 -5,1 -2,2 -3,3 -3,5 -1,3 -2,6 -2,10l0 26 -8 0zm32 -59l0 -9 8 0 0 9 -8 0zm0 59l0 -50 8 0 0 50 -8 0zm53 -7c-3,3 -6,5 -9,6 -3,1 -6,2 -9,2 -5,0 -10,-2 -13,-4 -2,-3 -4,-6 -4,-10 0,-3 1,-5 2,-7 1,-2 2,-4 4,-5 2,-1 4,-2 6,-3 2,0 4,0 7,-1 7,-1 12,-2 15,-3 0,-1 0,-2 0,-2 0,-3 0,-6 -2,-7 -2,-2 -5,-3 -9,-3 -4,0 -7,1 -9,2 -2,2 -3,4 -4,8l-9 -2c1,-3 2,-6 4,-8 2,-2 4,-4 8,-5 3,-1 7,-2 11,-2 4,0 7,1 10,2 3,1 5,2 6,3 1,2 2,4 2,6 1,2 1,4 1,8l0 11c0,8 0,12 0,15 1,2 1,4 2,6l-8 0c-1,-2 -2,-4 -2,-7zm-1 -18c-3,1 -7,2 -13,3 -4,0 -6,1 -8,2 -1,0 -2,1 -3,2 -1,1 -1,3 -1,4 0,2 1,4 3,6 1,1 4,2 7,2 3,0 6,-1 9,-2 2,-1 4,-3 5,-6 1,-2 1,-4 1,-8l0 -3z"/>
    <g style="clip-path:url(#id10)">
     <g>
      <polygon id="1" class="fil5" points="448,760 419,740 302,910 286,899 95,1180 124,1200 241,1029 256,1040 "/>
      <polygon class="fil6" points="1007,758 978,738 861,908 846,897 654,1178 683,1198 800,1027 816,1038 "/>
      <polygon class="fil6" points="1713,859 1683,839 1567,1009 1551,999 1359,1279 1388,1299 1505,1128 1521,1139 "/>
     </g>
    </g>
    <g style="clip-path:url(#id11)">
     <g>
      <polygon class="fil5" points="448,760 419,740 302,910 286,899 95,1180 124,1200 241,1029 256,1040 "/>
      <polygon class="fil6" points="1007,758 978,738 861,908 846,897 654,1178 683,1198 800,1027 816,1038 "/>
      <polygon class="fil6" points="1713,859 1683,839 1567,1009 1551,999 1359,1279 1388,1299 1505,1128 1521,1139 "/>
     </g>
    </g>
    <g style="clip-path:url(#id12)">
     <g>
      <polygon class="fil5" points="448,760 419,740 302,910 286,899 95,1180 124,1200 241,1029 256,1040 "/>
      <polygon class="fil6" points="1007,758 978,738 861,908 846,897 654,1178 683,1198 800,1027 816,1038 "/>
      <polygon class="fil6" points="1713,859 1683,839 1567,1009 1551,999 1359,1279 1388,1299 1505,1128 1521,1139 "/>
     </g>
    </g>
    <g style="clip-path:url(#id13)">
     <g>
      <polygon class="fil5" points="448,760 419,740 302,910 286,899 95,1180 124,1200 241,1029 256,1040 "/>
      <polygon class="fil6" points="1007,758 978,738 861,908 846,897 654,1178 683,1198 800,1027 816,1038 "/>
      <polygon class="fil6" points="1713,859 1683,839 1567,1009 1551,999 1359,1279 1388,1299 1505,1128 1521,1139 "/>
     </g>
    </g>
    <g style="clip-path:url(#id14)">
     <g>
      <polygon class="fil5" points="448,760 419,740 302,910 286,899 95,1180 124,1200 241,1029 256,1040 "/>
      <polygon class="fil6" points="1007,758 978,738 861,908 846,897 654,1178 683,1198 800,1027 816,1038 "/>
      <polygon class="fil6" points="1713,859 1683,839 1567,1009 1551,999 1359,1279 1388,1299 1505,1128 1521,1139 "/>
     </g>
    </g>
    <g style="clip-path:url(#id15)">
     <g>
      <polygon class="fil5" points="448,760 419,740 302,910 286,899 95,1180 124,1200 241,1029 256,1040 "/>
      <polygon class="fil6" points="1007,758 978,738 861,908 846,897 654,1178 683,1198 800,1027 816,1038 "/>
      <polygon class="fil6" points="1713,859 1683,839 1567,1009 1551,999 1359,1279 1388,1299 1505,1128 1521,1139 "/>
     </g>
    </g>
    <g style="clip-path:url(#id16)">
     <g>
      <polygon class="fil5" points="448,760 419,740 302,910 286,899 95,1180 124,1200 241,1029 256,1040 "/>
      <polygon class="fil6" points="1007,758 978,738 861,908 846,897 654,1178 683,1198 800,1027 816,1038 "/>
      <polygon class="fil6" points="1713,859 1683,839 1567,1009 1551,999 1359,1279 1388,1299 1505,1128 1521,1139 "/>
     </g>
    </g>
    <g style="clip-path:url(#id17)">
     <g>
      <polygon class="fil5" points="448,760 419,740 302,910 286,899 95,1180 124,1200 241,1029 256,1040 "/>
      <polygon class="fil6" points="1007,758 978,738 861,908 846,897 654,1178 683,1198 800,1027 816,1038 "/>
      <polygon class="fil6" points="1713,859 1683,839 1567,1009 1551,999 1359,1279 1388,1299 1505,1128 1521,1139 "/>
     </g>
    </g>
    <g style="clip-path:url(#id18)">
     <g>
      <polygon class="fil5" points="448,760 419,740 302,910 286,899 95,1180 124,1200 241,1029 256,1040 "/>
      <polygon class="fil6" points="1007,758 978,738 861,908 846,897 654,1178 683,1198 800,1027 816,1038 "/>
      <polygon class="fil6" points="1713,859 1683,839 1567,1009 1551,999 1359,1279 1388,1299 1505,1128 1521,1139 "/>
     </g>
    </g>
    <g style="clip-path:url(#id19)">
     <g>
      <polygon class="fil5" points="448,760 419,740 302,910 286,899 95,1180 124,1200 241,1029 256,1040 "/>
      <polygon class="fil6" points="1007,758 978,738 861,908 846,897 654,1178 683,1198 800,1027 816,1038 "/>
      <polygon class="fil6" points="1713,859 1683,839 1567,1009 1551,999 1359,1279 1388,1299 1505,1128 1521,1139 "/>
     </g>
    </g>
    <g style="clip-path:url(#id20)">
     <g>
      <polygon class="fil5" points="448,760 419,740 302,910 286,899 95,1180 124,1200 241,1029 256,1040 "/>
      <polygon class="fil6" points="1007,758 978,738 861,908 846,897 654,1178 683,1198 800,1027 816,1038 "/>
      <polygon class="fil6" points="1713,859 1683,839 1567,1009 1551,999 1359,1279 1388,1299 1505,1128 1521,1139 "/>
     </g>
    </g>
    <g style="clip-path:url(#id21)">
     <g>
      <polygon class="fil5" points="448,760 419,740 302,910 286,899 95,1180 124,1200 241,1029 256,1040 "/>
      <polygon class="fil6" points="1007,758 978,738 861,908 846,897 654,1178 683,1198 800,1027 816,1038 "/>
      <polygon class="fil6" points="1713,859 1683,839 1567,1009 1551,999 1359,1279 1388,1299 1505,1128 1521,1139 "/>
     </g>
    </g>
    <g style="clip-path:url(#id22)">
     <g>
      <polygon class="fil5" points="448,760 419,740 302,910 286,899 95,1180 124,1200 241,1029 256,1040 "/>
      <polygon class="fil6" points="1007,758 978,738 861,908 846,897 654,1178 683,1198 800,1027 816,1038 "/>
      <polygon class="fil6" points="1713,859 1683,839 1567,1009 1551,999 1359,1279 1388,1299 1505,1128 1521,1139 "/>
     </g>
    </g>
    <g style="clip-path:url(#id23)">
     <g>
      <polygon class="fil5" points="448,760 419,740 302,910 286,899 95,1180 124,1200 241,1029 256,1040 "/>
      <polygon class="fil6" points="1007,758 978,738 861,908 846,897 654,1178 683,1198 800,1027 816,1038 "/>
      <polygon class="fil6" points="1713,859 1683,839 1567,1009 1551,999 1359,1279 1388,1299 1505,1128 1521,1139 "/>
     </g>
    </g>
    <g style="clip-path:url(#id24)">
     <g>
      <polygon class="fil5" points="448,760 419,740 302,910 286,899 95,1180 124,1200 241,1029 256,1040 "/>
      <polygon class="fil6" points="1007,758 978,738 861,908 846,897 654,1178 683,1198 800,1027 816,1038 "/>
      <polygon class="fil6" points="1713,859 1683,839 1567,1009 1551,999 1359,1279 1388,1299 1505,1128 1521,1139 "/>
     </g>
    </g>
   </g>
  </g>
 </g>
</svg>
